<svg width="60" height="60" viewBox="0 0 60 60" fill="none" xmlns="http://www.w3.org/2000/svg">
<path d="M55.9685 58.6279L4.38745 58.9836L4.62461 24.7148L55.8499 24.8334L55.9685 58.6279Z" fill="#FFD8C3"/>
<path d="M49.6838 3.25293H38.5376V13.6877H49.6838V3.25293Z" fill="#7BD8D3"/>
<path d="M37.3518 1C36.6403 1 36.166 1.47431 36.166 2.18577V14.8735C36.166 15.4664 36.7589 12.502 37.3518 12.502H50.9882C51.6996 12.502 52.1739 15.585 52.1739 14.8735V2.18577C52.1739 1.59289 51.581 1 50.9882 1H37.3518ZM49.6838 13.6877H38.5376V3.25296H49.6838V13.6877Z" fill="#566066"/>
<path d="M35.5735 3.25293H24.4272V13.6877H35.5735V3.25293Z" fill="#7BD8D3"/>
<path d="M23.1228 1C22.4113 1 21.937 1.47431 21.937 2.18577V14.8735C21.937 15.4664 22.5299 12.502 23.1228 12.502H36.7591C37.4706 12.502 37.9449 15.585 37.9449 14.8735V2.18577C37.9449 1.59289 37.352 1 36.7591 1H23.1228ZM35.5734 13.6877H24.4271V3.25296H35.5734V13.6877Z" fill="#566066"/>
<path d="M9.01194 1C8.30048 1 7.82617 1.47431 7.82617 2.18577V14.8735C7.82617 15.4664 8.41906 12.502 9.01194 12.502H22.6483C23.3598 12.502 23.8341 15.585 23.8341 14.8735V2.18577C23.8341 1.59289 23.2412 1 22.6483 1H9.01194ZM21.4625 13.6877H10.3163V3.25296H21.4625V13.6877Z" fill="#566066"/>
<path d="M50.3953 2.89648H9.60474V13.9242H50.3953V2.89648Z" fill="#FF7E97"/>
<path d="M42.8063 4.67676H41.502V8.94553H42.8063V4.67676Z" fill="white"/>
<path d="M47.0753 5.15065C47.0753 5.03208 46.9567 4.9135 46.8382 4.9135C46.7196 4.79492 46.7196 4.79492 46.601 4.79492H46.4824H45.6524H45.5338C45.4152 4.79492 45.4152 4.9135 45.2966 4.9135C45.1781 5.03208 45.1781 5.03208 45.0595 5.15065L43.3994 8.94512H44.1109L44.5852 7.75935H46.8382L47.3125 8.94512H48.6168L47.0753 5.15065ZM44.9409 7.16646L45.771 5.15065L46.601 7.16646H44.9409Z" fill="white"/>
<path d="M40.079 7.64119C39.8418 7.28545 39.7233 6.92972 39.2489 6.92972C39.8418 6.81115 40.1976 6.45541 40.1976 5.86253C40.1976 5.15107 39.7233 4.67676 38.5375 4.67676H36.5217C36.2845 4.67676 36.0474 4.91391 36.0474 5.15107V8.82696H37.2331V7.0483H37.7074C38.1818 7.0483 38.4189 7.28545 38.6561 7.64119L39.2489 8.82696H40.5533L40.079 7.64119ZM38.1818 6.57399H37.2331V5.38822C37.2331 5.26964 37.3517 5.15107 37.4703 5.15107H38.1818C38.6561 5.15107 38.8932 5.5068 38.8932 5.86253C38.8932 6.21826 38.6561 6.57399 38.1818 6.57399Z" fill="white"/>
<path d="M17.7867 4.43945C16.1266 4.43945 15.178 5.50665 15.178 6.69242C15.178 7.99677 16.1266 8.94538 17.7867 8.94538C19.4468 8.94538 20.3954 7.87819 20.3954 6.69242C20.3954 5.50665 19.4468 4.43945 17.7867 4.43945ZM17.7867 8.58965C16.9566 8.58965 16.3637 7.75961 16.3637 6.81099C16.3637 5.86238 16.9566 5.03234 17.7867 5.03234C18.6167 5.03234 19.2096 5.86238 19.2096 6.81099C19.2096 7.75961 18.6167 8.58965 17.7867 8.58965Z" fill="white"/>
<path d="M20.6326 5.15107H22.4112V8.82696H23.7156V5.15107H25.2571V4.67676H20.6326V5.15107Z" fill="white"/>
<path d="M25.7312 5.15107H27.1541V8.82696H28.4585V5.15107H30.2371V4.67676H25.7312V5.15107Z" fill="white"/>
<path d="M12.4507 8.11549V4.67676H11.2649V8.35265C11.2649 8.5898 11.502 8.82696 11.7392 8.82696H14.9408V8.35265H12.6878C12.5692 8.35265 12.4507 8.23407 12.4507 8.11549Z" fill="white"/>
<path d="M30.9487 5.15107V8.35265C30.9487 8.5898 31.1859 8.82696 31.423 8.82696H34.8618V8.35265H32.3717C32.2531 8.35265 32.1345 8.23407 32.1345 8.11549V6.92972H34.7432V6.33684H32.1345V5.38822C32.1345 5.26964 32.2531 5.15107 32.3717 5.15107H34.8618V4.67676H31.423C31.1859 4.67676 30.9487 4.91391 30.9487 5.15107Z" fill="white"/>
<path d="M59.7628 23.7665L51.6996 10.6045H8.41897L0.118577 23.7665C0 24.0037 0 24.2409 0 24.478V24.5966C0 27.561 1.42292 29.9326 3.55731 31.4741V59.2211H56.917V31.1183C58.8142 29.6954 60 27.3239 60 24.5966C60 24.3594 59.8814 24.1223 59.7628 23.8851C59.8814 23.8851 59.7628 23.7665 59.7628 23.7665ZM50.5138 12.8575L57.1542 23.0551H45.5336L41.7391 12.8575H50.5138ZM31.4229 12.8575H38.8933L42.8063 23.0551H31.4229V12.8575ZM42.9249 25.7824C42.332 28.2725 40.1976 30.0511 37.3518 30.0511C34.6245 30.0511 32.3715 28.2725 31.7787 25.7824H42.9249ZM28.6957 12.8575V23.0551H16.6008L20.5138 12.8575H28.6957ZM28.1028 25.7824C27.5099 28.2725 25.3755 30.0511 22.5296 30.0511C19.8024 30.0511 17.5494 28.2725 16.9565 25.7824H28.1028ZM9.60474 12.8575H17.668L13.7549 23.0551H2.72727L9.60474 12.8575ZM2.25296 25.7824H13.2806C12.6877 28.2725 10.5534 30.0511 7.70751 30.0511C4.98024 30.0511 2.72727 28.2725 2.25296 25.7824ZM26.7984 57.561H13.8735V44.1618C13.8735 40.7231 16.7194 37.8772 20.2767 37.8772C23.834 37.8772 26.6798 40.7231 26.6798 44.1618V57.561H26.7984ZM55.1383 57.561H29.5257V44.1618C29.5257 39.1816 25.3755 35.0314 20.2767 35.0314C15.1779 35.0314 11.0277 39.063 11.0277 44.1618V57.4424H5.33597V32.5413C6.04743 32.6598 6.99605 32.7784 7.70751 32.7784C11.0277 32.7784 13.7549 31.1183 15.1779 28.3911C16.6008 30.9997 19.3281 32.7784 22.6482 32.7784C25.9684 32.7784 28.6957 31.1183 30.1186 28.3911C31.5415 30.9997 34.2688 32.7784 37.5889 32.7784C41.502 32.7784 43.6364 31.1183 45.0593 28.3911C46.4822 30.9997 49.2095 32.7784 52.5296 32.7784C53.3597 32.7784 54.5455 32.6598 55.3755 32.4227V57.561H55.1383ZM52.2925 30.0511C49.5652 30.0511 47.3123 28.2725 46.7194 25.7824H57.747C57.2727 28.2725 55.1383 30.0511 52.2925 30.0511Z" fill="#566066"/>
<path d="M22.5297 30.052C25.257 30.052 27.51 28.2733 28.1029 25.7832H17.0752C17.6681 28.2733 19.8025 30.052 22.5297 30.052Z" fill="#FF7E97"/>
<path d="M37.4704 30.052C40.1977 30.052 42.4507 28.2733 43.0435 25.7832H32.0159C32.4902 28.2733 34.7431 30.052 37.4704 30.052Z" fill="#FFEB8B"/>
<path d="M52.2924 30.052C55.0197 30.052 57.2727 28.2733 57.8656 25.7832H46.8379C47.4308 28.2733 49.5652 30.052 52.2924 30.052Z" fill="#FF7E97"/>
<path d="M18.2608 12.3838H9.60471L2.25293 23.4115H13.9921L18.2608 12.3838Z" fill="#7BD8D3"/>
<path d="M29.1699 23.4115V12.3838H20.3952L16.1265 23.4115H29.1699Z" fill="#FFEB8B"/>
<path d="M39.0119 12.3838H30.8301V23.53H43.2807L39.0119 12.3838Z" fill="#7BD8D3"/>
<path d="M57.9843 23.5295L50.6325 12.2646H40.9092L45.178 23.5295H57.9843Z" fill="#FFEB8B"/>
<path d="M8.18173 31.1189C11.3833 31.1189 13.7549 28.7473 14.4663 25.3086H1.77856C2.49003 28.7473 4.98015 31.1189 8.18173 31.1189Z" fill="#FFEB8B"/>
<path d="M22.7668 31.1189C25.9683 31.1189 28.3399 28.7473 29.0513 25.3086H16.4822C17.1936 28.7473 19.6838 31.1189 22.7668 31.1189Z" fill="#7BD8D3"/>
<path d="M37.4704 31.1189C40.672 31.1189 43.0435 28.7473 43.755 25.3086H31.1858C31.7787 28.7473 34.2688 31.1189 37.4704 31.1189Z" fill="#FFEB8B"/>
<path d="M52.0553 31.1189C55.2569 31.1189 57.6285 28.7473 58.3399 25.3086H45.7708C46.4822 28.7473 48.9723 31.1189 52.0553 31.1189Z" fill="#7BD8D3"/>
<path d="M36.1661 52.2254H48.3796C48.7353 52.2254 48.9725 51.9882 48.9725 51.6325V39.4191C48.9725 39.0633 48.7353 38.8262 48.3796 38.8262H36.1661C35.8104 38.8262 35.5732 39.0633 35.5732 39.4191V51.6325C35.5732 51.9882 35.8104 52.2254 36.1661 52.2254Z" fill="#7BD8D3"/>
<path d="M20.3953 36.9287C16.3637 36.9287 13.1621 40.1303 13.1621 44.3991V57.6797H27.7471V44.2805C27.6285 40.1303 24.4269 36.9287 20.3953 36.9287Z" fill="#FF97A0"/>
<path d="M51.2252 37.8776V52.344C51.2252 53.0555 50.6323 53.6483 49.9208 53.6483H35.3358C34.6244 53.6483 34.0315 53.0555 34.0315 52.344V37.8776C34.0315 37.1661 34.6244 36.5732 35.3358 36.5732H49.9208C50.6323 36.5732 51.2252 37.1661 51.2252 37.8776Z" fill="#566066"/>
<path d="M49.328 39.4188V50.8022C49.328 51.395 48.8537 51.8694 48.2608 51.8694H36.7588C36.166 51.8694 35.6917 51.395 35.6917 50.8022V39.4188C35.6917 38.8259 36.166 38.3516 36.7588 38.3516H48.2608C48.8537 38.3516 49.328 38.8259 49.328 39.4188Z" fill="#7BD8D3"/>
</svg>
