<svg width="60" height="60" viewBox="0 0 60 60" fill="none" xmlns="http://www.w3.org/2000/svg">
<g clip-path="url(#clip0_4698_4294)">
<path d="M33.2399 38.3872C32.5369 38.3872 31.9217 38.1236 31.4823 37.5963C30.7793 36.8054 30.6914 35.7508 31.2187 34.872C31.4823 34.4326 31.4823 33.9933 31.2187 33.6417L29.0217 29.5114C28.8459 29.1599 29.0217 28.8084 29.2853 28.6326L32.2732 27.0508C32.449 26.9629 32.6247 26.9629 32.8005 26.9629C32.9763 27.0508 33.152 27.1386 33.152 27.3144L35.2611 31.4447C35.4369 31.8841 35.8763 32.0599 36.3157 32.1478C37.2823 32.2357 38.1611 32.9387 38.4248 33.9054C38.6884 34.7842 38.3369 35.663 37.7217 36.2781C37.1066 36.8054 36.2278 36.9812 35.4369 36.7175C35.1732 37.5084 34.5581 38.1236 33.7672 38.3872C33.5914 38.3872 33.4157 38.3872 33.2399 38.3872ZM30.5156 29.4235L32.3611 32.9387C32.8005 33.7296 32.7126 34.6963 32.2732 35.4872C32.0096 35.8387 32.0975 36.366 32.3611 36.7175C32.6247 36.9812 32.9763 37.1569 33.4157 37.069C34.0308 36.8933 34.2066 36.366 34.2066 36.0145C34.2066 35.663 34.3823 35.3993 34.646 35.2236C34.9096 35.0478 35.2611 35.1357 35.5248 35.3114C35.8763 35.5751 36.4036 35.663 36.843 35.3114C37.1066 35.0478 37.2823 34.6963 37.1945 34.2569C37.1066 33.8175 36.7551 33.466 36.3157 33.466C35.4369 33.3781 34.646 32.8508 34.2066 32.0599L32.3611 28.5447L30.5156 29.4235Z" fill="#390075"/>
<path d="M37.8975 34.0812C38.0733 34.6964 37.8096 35.3994 37.3702 35.7509C36.6672 36.3661 35.7884 36.2782 35.1733 35.7509C35.0854 35.663 34.9096 35.7509 34.9096 35.8388C34.9975 36.6297 34.4702 37.4206 33.5914 37.5964C32.9763 37.7721 32.2732 37.5085 31.9217 37.0691C31.3944 36.4539 31.3944 35.663 31.746 35.1358C32.0975 34.5206 32.0975 33.8176 31.8338 33.2024L29.7247 29.0721L32.7126 27.4902L34.8217 31.6206C35.1733 32.2357 35.7005 32.5872 36.4036 32.6751C37.1066 32.8509 37.7218 33.2903 37.8975 34.0812Z" fill="white"/>
<path d="M33.2399 38.211C32.6247 38.211 32.0096 37.9474 31.5702 37.4201C30.955 36.717 30.8671 35.7504 31.3065 34.8716C31.5702 34.4322 31.5702 33.9049 31.3065 33.4655L29.1974 29.3352C29.1096 29.0715 29.1974 28.8079 29.3732 28.72L32.3611 27.1382C32.449 27.0503 32.6247 27.0503 32.7126 27.1382C32.8005 27.1382 32.9763 27.2261 32.9763 27.4018L35.0854 31.5321C35.349 31.9715 35.7884 32.3231 36.3157 32.3231C37.2824 32.4109 37.9854 33.0261 38.249 33.9928C38.4248 34.7837 38.1611 35.6625 37.546 36.1898C36.9308 36.717 35.9642 36.8928 35.2611 36.5413C35.0854 37.3322 34.4702 38.0352 33.6793 38.211C33.5914 38.211 33.4157 38.211 33.2399 38.211ZM30.252 29.3352L32.1853 33.0261C32.5369 33.7291 32.5369 34.6958 32.0975 35.3988C31.8338 35.8382 31.9217 36.4534 32.2732 36.8049C32.5369 37.1564 33.0641 37.3322 33.5035 37.1564C34.1187 36.9807 34.4702 36.4534 34.4702 35.8382C34.4702 35.5746 34.5581 35.311 34.8217 35.2231C35.0854 35.1352 35.349 35.1352 35.5248 35.311C35.9642 35.6625 36.6672 35.6625 37.1066 35.311C37.4581 35.0473 37.6339 34.5201 37.4581 34.0807C37.2824 33.5534 36.9308 33.2019 36.4036 33.114C35.5248 33.0261 34.8217 32.5867 34.4702 31.7958L32.5369 28.1049L30.252 29.3352Z" fill="#390075"/>
<path d="M23.661 13.6923C23.661 13.6923 23.7489 13.6923 23.7489 13.6045C26.2974 12.2863 30.252 13.0772 32.3611 16.7681C33.5035 18.7015 34.0308 21.3379 33.6793 24.853C33.5914 25.5561 33.6793 26.2591 33.8551 26.8743C34.2944 28.1046 34.1187 29.1591 33.5914 29.95C33.5035 30.1258 33.3278 30.3016 33.2399 30.4773C32.9763 30.741 32.7126 30.9167 32.449 31.0925C32.2732 31.1804 32.1853 31.1804 32.0096 31.2682C30.8672 31.6198 29.4611 31.1804 28.4065 29.7743C28.1429 29.4228 27.8792 29.1591 27.4398 28.8955C27.2641 28.7197 27.0005 28.6319 26.8247 28.544C24.1004 27.3137 22.3428 25.6439 21.3762 23.7985C19.1792 19.8439 20.761 15.2742 23.661 13.6923Z" fill="#FFEB8B"/>
<g opacity="0.55">
<g opacity="0.55">
<path opacity="0.55" d="M26.3853 28.2805C23.8368 27.0502 22.2549 25.4684 21.2883 23.7108C19.0913 19.7562 20.6731 15.1865 23.5731 13.6047C23.5731 13.6047 23.661 13.6047 23.661 13.5168C25.5065 12.5501 28.055 12.7259 30.1641 14.2198C28.4065 13.5168 26.561 13.6047 25.155 14.3077C25.155 14.3077 25.0671 14.3077 25.0671 14.3956C22.1671 15.9774 20.5852 20.5471 22.7822 24.5017C23.5731 25.9078 24.7156 27.1381 26.3853 28.2805Z" fill="#566066"/>
</g>
</g>
<path d="M31.1308 31.7954C30.0762 31.7954 28.8459 31.2682 27.9671 30.0378C27.6156 29.5984 27.1762 29.2469 26.6489 28.9833C22.4307 27.0499 19.9701 23.7984 19.8822 20.1075C19.7943 17.2074 21.2883 14.3953 23.5732 13.2529C25.5944 12.1983 28.3186 12.4619 30.4278 13.868C32.1853 15.0983 34.9975 18.0862 34.2066 24.9408C34.1187 25.556 34.2066 26.259 34.3823 26.7863C35.0854 29.0712 34.1187 30.7409 32.7126 31.4439C32.2732 31.6197 31.746 31.7954 31.1308 31.7954ZM28.758 29.4227C29.9005 31.0045 31.3944 31.0045 32.2732 30.5651C33.152 30.1257 34.0308 28.8954 33.4157 27.0499C33.152 26.3469 33.152 25.556 33.2399 24.7651C33.9429 18.4377 31.4823 15.7135 29.9005 14.571C28.055 13.3407 25.7701 13.0771 24.0126 13.9559C22.0792 14.9226 20.761 17.3832 20.8489 19.9317C20.9368 23.2711 23.1338 26.1711 27.0005 28.0166C27.7035 28.3681 28.3187 28.8954 28.758 29.4227Z" fill="#566066"/>
<path d="M30.5156 40.6711C30.252 40.6711 29.9004 40.5832 29.6368 40.4953C28.8459 40.1438 28.3186 39.4408 28.2307 38.6498C27.4398 38.8256 26.561 38.562 26.0338 37.8589C25.4186 37.1559 25.3307 36.1892 25.5944 35.3983C25.9459 34.4316 26.9125 33.9043 27.8792 33.9043C28.3186 33.9043 28.758 33.7286 29.0217 33.3771L31.7459 29.5983C31.9217 29.3346 32.3611 29.2467 32.7126 29.4225L35.5247 31.4437C35.7005 31.5316 35.7884 31.7074 35.7884 31.8831C35.7884 32.0589 35.7884 32.2346 35.7005 32.4104L32.9762 36.1892C32.7126 36.5407 32.6247 37.068 32.8005 37.4195C33.152 38.3862 32.8884 39.4408 32.1853 40.0559C31.658 40.4953 31.1308 40.6711 30.5156 40.6711ZM28.758 37.1559C28.9338 37.1559 29.1095 37.2438 29.1974 37.3316C29.4611 37.5074 29.5489 37.8589 29.5489 38.1226C29.4611 38.562 29.6368 39.0892 30.1641 39.3529C30.5156 39.5286 30.955 39.4408 31.2186 39.1771C31.5702 38.9135 31.658 38.3862 31.4823 38.0347C31.1308 37.1559 31.2186 36.2771 31.7459 35.4862L34.0308 32.2346L32.449 31.0043L30.1641 34.2559C29.6368 34.9589 28.758 35.3983 27.8792 35.3104C27.4398 35.3104 27.0004 35.5741 26.8247 35.9256C26.6489 36.2771 26.7368 36.7165 27.0004 36.9801C27.4398 37.4195 27.9671 37.4195 28.3186 37.1559C28.4065 37.1559 28.5823 37.1559 28.758 37.1559Z" fill="#390075"/>
<path d="M31.658 39.617C31.2186 40.0563 30.5155 40.1442 29.9004 39.8806C29.1095 39.5291 28.6701 38.7382 28.8458 37.9472C28.8458 37.8594 28.7579 37.6836 28.5822 37.7715C27.8792 38.2109 27.0004 38.123 26.3852 37.42C25.9458 36.9806 25.8579 36.2775 26.1216 35.6624C26.3852 34.9593 27.0882 34.6078 27.7913 34.6078C28.4943 34.6078 29.1095 34.3442 29.5489 33.8169L32.2731 30.0381L35.0853 32.0593L32.361 35.8381C32.0095 36.3654 31.9216 37.0684 32.0974 37.7715C32.361 38.2988 32.2731 39.0897 31.658 39.617Z" fill="white"/>
<path d="M30.5157 40.4958C30.252 40.4958 29.9884 40.4079 29.7247 40.32C28.9338 39.9685 28.4065 39.2655 28.4065 38.3867C27.6156 38.6503 26.7368 38.3867 26.1217 37.6836C25.5944 37.0685 25.4186 36.1897 25.7702 35.3988C26.1217 34.52 27.0005 33.9927 27.8793 34.0806C28.4065 34.0806 28.9338 33.9048 29.1975 33.4654L31.9217 29.6866C32.0975 29.5109 32.3611 29.423 32.6248 29.5987L35.4369 31.62C35.5248 31.7078 35.6127 31.7957 35.6127 31.9715C35.6127 32.0594 35.6127 32.2351 35.5248 32.323L32.8005 36.1018C32.5369 36.5412 32.449 37.0685 32.6248 37.5079C32.9763 38.3867 32.7126 39.3534 32.0096 39.9685C31.5702 40.32 31.0429 40.4958 30.5157 40.4958ZM28.7581 37.3321C28.8459 37.3321 29.0217 37.3321 29.1096 37.42C29.2853 37.5958 29.3732 37.8594 29.3732 38.0352C29.2853 38.6503 29.549 39.1776 30.0763 39.4412C30.5157 39.617 30.955 39.5291 31.3066 39.2655C31.746 38.914 31.8338 38.3867 31.6581 37.8594C31.3066 37.0685 31.4823 36.1897 31.9217 35.4867L34.3823 32.1472L32.3611 30.7412L29.9005 34.0806C29.3732 34.7836 28.5823 35.1351 27.7914 35.1351C27.2641 35.1351 26.8247 35.3988 26.5611 35.9261C26.3853 36.3655 26.4732 36.8049 26.7368 37.1564C27.1762 37.5958 27.7914 37.6836 28.3187 37.42C28.4944 37.3321 28.5823 37.3321 28.7581 37.3321Z" fill="#390075"/>
<path d="M45.1036 26.1713C45.0157 26.4349 44.84 26.6985 44.6642 26.9622C43.4339 28.8076 41.3248 30.5652 37.9854 31.7955C37.3702 32.0592 36.7551 32.4107 36.2278 32.8501C35.349 33.7289 34.2944 34.0804 33.4156 33.9925C33.2399 33.9925 32.9762 33.9047 32.8005 33.9047C32.449 33.8168 32.1853 33.641 31.9217 33.4653C31.8338 33.3774 31.658 33.2895 31.5702 33.1137C30.7793 32.2349 30.4277 30.8289 31.2186 29.247C31.3944 28.8955 31.5702 28.4561 31.5702 28.0167C31.5702 27.7531 31.5702 27.5773 31.5702 27.3137C31.4823 24.3258 32.1853 22.0409 33.3278 20.3712C35.349 17.3833 38.8642 16.3288 41.5006 17.0318C42.2036 17.2076 42.8187 17.4712 43.346 17.8227L43.4339 17.9106C45.7188 19.4045 46.7733 22.9197 45.1036 26.1713Z" fill="#FFEB8B"/>
<path d="M33.6793 34.4323C32.8883 34.4323 32.1853 34.1687 31.658 33.8172C30.4277 32.9384 29.7247 31.0929 30.7792 28.9838C31.0429 28.4565 31.1308 27.9292 31.1308 27.3141C30.955 22.6565 32.8005 19.0534 36.052 17.2958C38.6005 15.8897 41.7642 15.9776 43.7854 17.4716C45.6309 18.7898 46.5975 21.3383 46.3339 23.8868C46.0703 25.9959 44.5763 29.8626 38.1611 32.2353C37.546 32.499 37.0187 32.7626 36.5793 33.202C35.6126 34.0808 34.6459 34.4323 33.6793 34.4323ZM31.658 29.4232C30.7792 31.1808 31.4823 32.499 32.2732 33.0262C33.0641 33.6414 34.5581 33.8172 35.9641 32.499C36.4914 31.9717 37.1066 31.6202 37.8975 31.2687C43.8733 29.0717 45.1915 25.5565 45.4551 23.711C45.7188 21.514 44.9278 19.4049 43.346 18.2625C41.5884 16.9443 38.8642 16.9443 36.5793 18.0867C33.5914 19.6686 32.0096 23.008 32.1853 27.2262C32.0974 28.0171 31.9217 28.7202 31.658 29.4232Z" fill="#566066"/>
<g opacity="0.3">
<path opacity="0.3" d="M45.1036 26.1717C41.6763 25.6444 36.9308 24.5899 36.9308 24.5899C41.6763 24.1505 42.9945 21.5141 41.5884 16.9443C42.2914 17.1201 42.9066 17.3837 43.4339 17.7353L43.5217 17.8231C45.7187 19.405 46.7733 22.9201 45.1036 26.1717Z" fill="#566066"/>
</g>
<path d="M13.1154 20.2837C12.9397 20.2837 12.7639 20.1958 12.5882 20.0201L9.68813 16.3291C9.42449 15.9776 8.98509 15.8019 8.54569 15.8019C7.49114 15.9776 6.61234 15.4504 6.17295 14.4837C5.82143 13.6928 5.90931 12.7261 6.43659 12.0231C6.96386 11.32 7.84266 11.0564 8.63357 11.1443C8.72145 10.3533 9.24873 9.56243 9.95177 9.21091C10.7427 8.85939 11.7094 8.94727 12.4124 9.47455C13.2033 10.0897 13.5548 11.1443 13.2033 12.1109C13.0275 12.5503 13.1154 12.9897 13.3791 13.3412L16.2791 16.9443C16.367 17.1201 16.4548 17.2958 16.4548 17.4716C16.4548 17.6473 16.367 17.8231 16.1912 17.911L13.5548 20.0201C13.3791 20.1958 13.2912 20.2837 13.1154 20.2837ZM8.63357 14.5716C9.42449 14.5716 10.2154 14.9231 10.7427 15.5382L13.2033 18.614L14.873 17.2958L12.4124 14.22C11.8851 13.517 11.7094 12.5503 11.973 11.6715C12.1488 11.2321 11.973 10.7927 11.6215 10.5291C11.3578 10.2655 10.9184 10.2655 10.5669 10.4412C10.0396 10.7049 9.86389 11.2321 9.95177 11.6715C10.0396 12.0231 9.95177 12.2867 9.68813 12.5503C9.42449 12.7261 9.07297 12.814 8.80933 12.6382C8.45781 12.3746 7.84266 12.3746 7.49114 12.9018C7.2275 13.1655 7.2275 13.6049 7.31538 13.9564C7.57902 14.3958 7.93054 14.5716 8.36993 14.5716C8.45781 14.5716 8.54569 14.5716 8.63357 14.5716Z" fill="#566066"/>
<path d="M6.78806 14.2201C6.52442 13.6928 6.6123 12.9898 6.96382 12.4625C7.49109 11.7595 8.45777 11.6716 9.07292 12.0231C9.1608 12.111 9.33656 11.9353 9.24868 11.8474C9.07292 11.0565 9.33656 10.2655 10.2154 9.82614C10.7426 9.5625 11.4457 9.65038 11.9729 10.0019C12.5881 10.5292 12.7639 11.2322 12.5002 11.9353C12.3245 12.5504 12.4123 13.2534 12.8517 13.7807L15.7518 17.3838L13.1154 19.4929L10.2154 15.8898C9.77596 15.4504 9.1608 15.1868 8.45777 15.1868C7.75473 15.2747 7.0517 14.9232 6.78806 14.2201Z" fill="white"/>
<path d="M13.1154 20.1086C12.9397 20.1086 12.8518 20.0208 12.7639 19.9329L9.86391 16.3298C9.51239 15.8904 9.07299 15.7147 8.54572 15.8025C7.57904 15.8904 6.78813 15.3631 6.34873 14.5722C5.99721 13.6934 6.08509 12.8146 6.61237 12.1995C7.13964 11.4964 8.01844 11.2328 8.80935 11.4086C8.80935 10.6177 9.24875 9.82674 10.0397 9.47522C10.8306 9.03582 11.7094 9.21158 12.3245 9.65098C13.0276 10.2661 13.3791 11.2328 13.0276 12.1116C12.8518 12.6389 12.9397 13.1662 13.2912 13.5177L16.1912 17.1207C16.2791 17.2086 16.2791 17.3844 16.2791 17.4723C16.2791 17.5601 16.1912 17.7359 16.1034 17.8238L13.467 19.9329C13.2912 20.0208 13.2033 20.1086 13.1154 20.1086ZM8.63359 14.748C9.42451 14.748 10.1275 15.0995 10.5669 15.7147L13.1154 18.9662L15.0488 17.4723L12.5003 14.2207C11.973 13.6056 11.7973 12.7268 12.1488 11.848C12.3245 11.3207 12.1488 10.7934 11.7094 10.4419C11.3579 10.1783 10.8306 10.0904 10.4791 10.2661C9.95179 10.5298 9.68815 11.1449 9.77603 11.6722C9.86391 11.9358 9.77603 12.1995 9.60027 12.2874C9.33663 12.551 9.07299 12.551 8.89723 12.4631C8.36996 12.1995 7.66692 12.2874 7.3154 12.8146C7.05176 13.1662 6.96388 13.6056 7.13964 14.045C7.40328 14.4844 7.93056 14.8359 8.45784 14.748C8.54572 14.748 8.54572 14.748 8.63359 14.748Z" fill="#566066"/>
<path d="M24.5397 31.5325L24.4519 31.6203C22.167 33.3779 18.1245 33.3779 15.4003 30.2143C13.9942 28.5446 12.8518 26.0839 12.5881 22.4809C12.5003 21.7778 12.3245 21.0748 12.0609 20.4596C11.4457 19.3172 11.4457 18.2627 11.7093 17.3839C11.7972 17.2081 11.8851 17.0323 11.973 16.8566C12.1487 16.5929 12.4124 16.3293 12.676 16.1535C12.7639 16.0657 12.9397 15.9778 13.0275 15.8899C14.0821 15.3626 15.576 15.4505 16.8063 16.6808C17.2457 16.9445 17.5973 17.2081 18.0367 17.3839C18.2124 17.4717 18.4761 17.5596 18.7397 17.6475C21.6397 18.3505 23.6609 19.6687 24.9791 21.2506C27.7913 24.6779 27.0882 29.5112 24.5397 31.5325Z" fill="#FFEB8B"/>
<g opacity="0.55">
<g opacity="0.55">
<path opacity="0.55" d="M24.8034 31.4443C24.7155 31.4443 24.7155 31.4443 24.8034 31.4443C24.6276 31.5322 24.6276 31.5322 24.6276 31.6201C22.3428 33.3776 18.3003 33.3776 15.5761 30.214C14.17 28.5443 13.0276 26.0836 12.7639 22.4806C12.676 21.7776 12.5003 21.0745 12.2366 20.4594C11.6215 19.3169 11.6215 18.2624 11.8851 17.3836C11.973 17.2078 12.0609 17.0321 12.1488 16.8563C12.3245 16.5927 12.5882 16.329 12.8518 16.1533C12.9397 16.0654 13.1154 15.9775 13.2033 15.8896C13.3791 15.8017 13.4669 15.7139 13.6427 15.7139C13.5548 15.8017 13.4669 15.9775 13.3791 16.0654C13.3791 16.1533 13.2033 16.4169 13.2033 16.5927C12.8518 17.4715 12.8518 18.526 13.5548 19.6684C13.9063 20.2836 14.0821 20.9866 14.0821 21.6897C14.3457 25.2049 15.4003 27.7534 16.8943 29.4231C19.1791 32.0595 22.4307 32.4988 24.8034 31.4443Z" fill="#566066"/>
</g>
</g>
<path d="M20.8488 33.2901C19.8821 33.2901 18.8276 33.1143 17.8609 32.6749C15.9276 31.7961 12.5881 29.3355 12.0609 22.4809C11.973 21.8657 11.7972 21.2506 11.5336 20.7233C10.3911 18.6142 11.0942 16.7687 12.2366 15.802C13.379 14.8354 15.4003 14.6596 17.1579 16.2414C17.5973 16.593 18.1245 16.9445 18.6518 17.0324C23.1337 18.1748 26.2095 20.8991 26.9125 24.5021C27.5276 27.4021 26.561 30.3022 24.5397 31.884C23.661 32.8507 22.2549 33.2901 20.8488 33.2901ZM14.4336 16.0657C13.8184 16.0657 13.2912 16.2414 12.9397 16.593C12.1487 17.2081 11.5336 18.5263 12.5003 20.2839C12.8518 20.8991 13.0275 21.69 13.1154 22.4809C13.6427 28.8082 16.6306 31.0931 18.3003 31.7961C20.3215 32.6749 22.6064 32.4991 24.1882 31.2688C25.9458 29.9506 26.7367 27.3143 26.2095 24.8536C25.5064 21.6021 22.7822 19.1415 18.6518 18.0869C17.9488 17.9111 17.2457 17.5596 16.7185 17.0324C15.8397 16.3293 15.1366 16.0657 14.4336 16.0657Z" fill="#566066"/>
<path d="M35.6126 11.2314C36.052 10.792 36.755 10.6162 37.3702 10.792C38.249 11.0556 38.6884 11.8465 38.6005 12.6374C38.6005 12.7253 38.7762 12.8132 38.8641 12.8132C39.4793 12.3738 40.446 12.3738 41.0611 12.9889C41.5005 13.4283 41.6763 14.1314 41.5005 14.7465C41.2369 15.4496 40.6217 15.889 39.9187 15.9769C39.2156 15.9769 38.6005 16.3284 38.249 16.9435L35.8762 20.8981L32.9762 19.1405L35.3489 15.1859C35.7005 14.5708 35.7005 13.8677 35.4368 13.2526C34.9974 12.6374 35.0853 11.8465 35.6126 11.2314Z" fill="white"/>
<path d="M35.8762 21.3376C35.7884 21.3376 35.7005 21.3376 35.6126 21.2498L32.7126 19.4922C32.4489 19.3164 32.4489 19.0528 32.5368 18.877L34.9096 14.9224C35.1732 14.483 35.1732 13.9558 34.9096 13.5164C34.4702 12.7254 34.6459 11.6709 35.2611 11.0557C35.7884 10.4406 36.6671 10.2648 37.4581 10.4406C38.249 10.7042 38.8641 11.4072 38.952 12.1982C39.7429 11.9345 40.6217 12.1103 41.2369 12.6376C41.852 13.1648 42.0278 14.0436 41.852 14.8345C41.5884 15.7133 40.7975 16.3285 39.8308 16.4164C39.3035 16.4164 38.8641 16.68 38.6005 17.1194L36.2278 21.074C36.1399 21.1619 36.052 21.2498 35.9641 21.3376H35.8762ZM33.5914 18.9649L35.7005 20.1952L37.8096 16.5921C38.249 15.8891 38.952 15.4497 39.8308 15.3618C40.3581 15.3618 40.7975 15.0103 40.9732 14.483C41.149 14.0436 40.9732 13.6042 40.6217 13.2527C40.1823 12.8133 39.5672 12.8133 39.0399 13.1648C38.8641 13.3406 38.6005 13.3406 38.3369 13.1648C38.1611 13.077 37.9853 12.8133 38.0732 12.5497C38.1611 11.9345 37.8096 11.4072 37.1944 11.2315C36.755 11.0557 36.3156 11.2315 35.9641 11.583C35.6126 11.9345 35.5247 12.5497 35.7884 12.9891C36.1399 13.78 36.1399 14.6588 35.7005 15.3618L33.5914 18.9649Z" fill="#566066"/>
<path d="M36.755 22.9192C36.755 23.1828 36.755 23.3586 36.755 23.6222C37.0186 25.4677 36.8428 27.1374 36.4913 28.5435C36.3156 29.3344 35.964 30.1253 35.6125 30.7405C33.4155 34.695 28.67 35.7496 25.8579 34.1678C25.8579 34.1678 25.77 34.1678 25.77 34.0799C23.3094 32.5859 21.9033 28.8071 23.8367 25.1162C24.8912 23.1828 26.8246 21.2495 29.9882 19.7555C30.6034 19.4919 31.2185 19.0525 31.6579 18.5252C32.4489 17.5585 33.5034 17.1191 34.3822 17.1191C34.558 17.1191 34.8216 17.1191 34.9974 17.207C35.1731 17.207 35.3489 17.2949 35.5246 17.3828C35.7004 17.4707 35.7883 17.4707 35.8762 17.5585C35.964 17.6464 36.1398 17.7343 36.2277 17.8222C37.1065 18.6131 37.5459 20.0192 36.9307 21.6889C36.8428 22.0404 36.755 22.4798 36.755 22.9192Z" fill="#FFEB8B"/>
<g opacity="0.55">
<g opacity="0.55">
<path opacity="0.55" d="M34.4702 30.7401L34.1187 30.5644L34.2944 30.4765L34.558 29.8613L34.4702 30.6522V30.7401Z" fill="#390075"/>
</g>
</g>
<g opacity="0.55">
<g opacity="0.55">
<path opacity="0.55" d="M35.6125 27.8408L35.5246 27.7529H35.4368V27.5771L35.5246 27.665V27.7529H35.6125V27.8408Z" fill="#390075"/>
</g>
</g>
<path d="M28.8458 35.3103C27.7034 35.3103 26.561 35.0466 25.5943 34.4315C23.5731 33.289 22.4306 30.8284 22.5185 28.2799C22.6064 26.1708 23.661 22.2162 29.9004 19.2283C30.5156 18.9647 30.955 18.5253 31.3943 18.0859C32.8883 16.2404 34.9095 16.2404 36.2277 17.0313C37.5459 17.8222 38.4247 19.5798 37.5459 21.7768C37.3702 22.3041 37.2823 22.9193 37.3702 23.5344C37.9853 28.1041 36.4914 31.9708 33.4156 33.9921C31.9216 34.8709 30.3398 35.3103 28.8458 35.3103ZM34.3822 17.5586C33.6792 17.5586 32.8004 17.9101 32.0974 18.7889C31.658 19.3162 31.0428 19.8435 30.3398 20.195C24.6276 22.9193 23.5731 26.5223 23.4852 28.4557C23.3973 30.6527 24.4519 32.7618 26.1216 33.7284C27.967 34.8709 30.6913 34.6951 32.8883 33.289C35.7004 31.4436 37.0186 28.0163 36.4914 23.7981C36.4035 23.0071 36.4914 22.3041 36.755 21.6011C37.458 19.7556 36.6671 18.5253 35.7883 17.998C35.261 17.6465 34.8216 17.5586 34.3822 17.5586Z" fill="#566066"/>
<g opacity="0.55">
<g opacity="0.55">
<path opacity="0.55" d="M34.4702 30.7401L34.1187 30.5644L34.2944 30.4765L34.558 29.8613L34.4702 30.6522V30.7401Z" fill="#390075"/>
</g>
</g>
<g opacity="0.55">
<g opacity="0.55">
<path opacity="0.55" d="M35.6125 27.8408L35.5246 27.7529H35.4368V27.5771L35.5246 27.665V27.7529H35.6125V27.8408Z" fill="#390075"/>
</g>
</g>
<g opacity="0.3">
<path opacity="0.3" d="M36.7549 22.9192C36.7549 23.1829 36.7549 23.3586 36.7549 23.6223C37.0186 25.4677 36.8428 27.1374 36.4913 28.5435C35.5246 28.6314 34.7337 28.6314 34.558 28.6314C33.8549 28.6314 30.5155 25.2041 30.5155 25.2041C32.0095 24.9404 33.064 24.1495 33.5034 22.6556C33.6792 21.9525 34.1186 21.3374 34.7337 20.898C35.8762 20.1071 36.2277 18.9646 35.5246 17.3828C35.7004 17.4707 35.7883 17.4707 35.8762 17.5586C35.964 17.6465 36.1398 17.7343 36.2277 17.8222C37.1065 18.6131 37.5459 20.0192 36.9307 21.6889C36.8428 22.0404 36.7549 22.4798 36.7549 22.9192Z" fill="#566066"/>
</g>
<path d="M47.037 23.0955C47.037 23.6228 46.6855 24.0622 46.1582 24.5016C43.7854 26.2592 37.1066 27.5773 29.1974 27.5773C21.2883 27.5773 14.6095 26.2592 12.2367 24.5016C11.6215 24.0622 11.3579 23.5349 11.3579 23.0955C11.3579 22.4803 11.7973 21.9531 12.5882 21.4258C13.6428 23.5349 20.6731 25.1167 29.1974 25.1167C37.7218 25.1167 44.7521 23.5349 45.8067 21.4258C46.5976 21.9531 47.037 22.5682 47.037 23.0955Z" fill="#7BD8D3"/>
<path d="M29.1974 27.7531C21.464 27.7531 14.6094 26.5228 12.1488 24.6773C11.5336 24.2379 11.1821 23.7106 11.1821 23.1834C11.1821 22.5682 11.6215 21.953 12.5003 21.4258L12.5882 21.3379L12.6761 21.4258C13.7306 23.5349 20.8489 25.1167 29.1974 25.1167C37.546 25.1167 44.7521 23.5349 45.7188 21.4258V21.3379L45.8066 21.4258C46.6854 21.953 47.1248 22.5682 47.1248 23.1834C47.1248 23.7106 46.7733 24.2379 46.1582 24.6773C43.6975 26.5228 36.8429 27.7531 29.1974 27.7531ZM12.5003 21.6015C11.7973 22.1288 11.3579 22.6561 11.3579 23.0955C11.3579 23.5349 11.6215 23.9743 12.2367 24.5016C14.6973 26.347 21.464 27.5773 29.1095 27.5773C36.7551 27.5773 43.6097 26.347 45.9824 24.5016C46.5976 24.0622 46.8612 23.6228 46.8612 23.0955C46.8612 22.5682 46.5097 22.0409 45.7188 21.6015C44.4885 23.7106 37.3702 25.2925 29.0217 25.2925C20.6731 25.2925 13.7306 23.7106 12.5003 21.6015Z" fill="#390075"/>
<g opacity="0.3">
<path opacity="0.3" d="M47.037 23.0955C47.037 23.6228 46.6854 24.0622 46.1582 24.5016C45.0157 25.3803 42.9066 26.0834 40.0945 26.6107C40.0945 26.6107 40.0945 26.6107 40.1824 26.5228C40.7975 26.0834 41.0612 25.5561 41.0612 25.1167C41.0612 24.6773 40.8854 24.3258 40.446 23.9743C43.2581 23.2712 45.2794 22.3924 45.7188 21.3379C46.5976 21.953 47.037 22.5682 47.037 23.0955Z" fill="#FFF6F3"/>
</g>
<path d="M46.1582 24.5898L40.6218 45.2415C40.5339 46.1203 39.6551 46.8233 38.3369 47.4385C37.2823 47.8779 35.8763 48.3173 34.2944 48.5809C33.2399 48.7567 32.0975 48.8446 30.955 48.9325C30.252 48.9325 29.549 49.0203 28.8459 49.0203C27.9671 49.0203 27.1762 49.0203 26.3853 48.9325C25.155 48.8446 24.1004 48.6688 23.0459 48.4931C21.3762 48.2294 20.058 47.79 19.0034 47.2627C18.0367 46.8233 17.4216 46.2082 17.2458 45.593L17.1579 45.2415L12.2367 24.502C13.2912 25.2929 15.3125 26.0838 17.861 26.6111C19.4428 26.9626 21.2004 27.2262 23.2216 27.402C24.4519 27.4899 25.6823 27.5777 27.0005 27.6656C27.7035 27.6656 28.4944 27.6656 29.1974 27.6656C30.252 27.6656 31.2187 27.6656 32.1853 27.5777C33.5035 27.4899 34.7338 27.402 35.9642 27.3141C37.9854 27.1383 39.743 26.7868 41.3248 26.4353C43.4339 25.908 45.1036 25.2929 46.1582 24.5898Z" fill="#FF7E97"/>
<g opacity="0.3">
<path opacity="0.3" d="M46.1581 24.5898L40.6217 45.2415C40.5339 46.1203 39.6551 46.8234 38.3369 47.4385C37.2823 47.8779 35.8762 48.3173 34.2944 48.5809C33.2399 48.7567 32.0974 48.8446 30.955 48.9325C30.252 48.9325 29.5489 49.0203 28.8459 49.0203C28.055 49.0203 27.2641 49.0203 26.4731 48.9325C27.6156 48.8446 28.5823 48.7567 29.5489 48.5809C31.1308 48.3173 32.5368 47.8779 33.5914 47.4385C34.9096 46.8234 35.7884 46.0324 35.8762 45.2415L41.0611 26.5232H41.149C43.4339 25.908 45.1036 25.2929 46.1581 24.5898Z" fill="#FFF6F3"/>
</g>
<path d="M29.1974 28.1046C21.3761 28.1046 14.4336 26.7864 11.973 24.9409C11.27 24.4136 10.8306 23.7985 10.8306 23.0954C10.8306 22.3045 11.3578 21.6894 12.3245 20.9863C12.4124 20.8984 12.5882 20.8984 12.676 20.8984C12.7639 20.8984 12.9397 20.9863 12.9397 21.1621C13.8185 22.8318 20.0579 24.5894 29.1095 24.5894C38.1611 24.5894 44.4884 22.8318 45.2793 21.1621C45.3672 21.0742 45.4551 20.9863 45.543 20.8984C45.6308 20.8984 45.8066 20.8984 45.8945 20.9863C46.8612 21.6015 47.3884 22.3045 47.3884 23.0954C47.3884 23.7106 47.0369 24.3257 46.246 24.9409C43.8733 26.8742 36.9308 28.1046 29.1974 28.1046ZM12.4124 22.1288C12.0609 22.3924 11.7972 22.7439 11.7972 23.0954C11.7972 23.5348 12.1488 23.8863 12.5003 24.15C14.7851 25.9076 21.6397 27.1379 29.1974 27.1379C36.755 27.1379 43.5217 25.9076 45.8945 24.15C46.246 23.8863 46.5975 23.5348 46.5975 23.0954C46.5975 22.7439 46.3339 22.3924 45.9824 22.1288C43.9611 24.4136 36.3156 25.6439 29.1974 25.6439C22.0791 25.6439 14.4336 24.4136 12.4124 22.1288Z" fill="#566066"/>
<path d="M17.1579 46.12C16.9821 46.12 16.8064 46.0321 16.7185 45.7684C16.6306 45.5927 16.6306 45.5048 16.6306 45.329C16.6306 45.0654 16.8064 44.8896 17.07 44.8018C17.3337 44.8018 17.5973 44.8896 17.5973 45.1533L17.6852 45.5048C17.773 45.7684 17.5973 46.0321 17.3337 46.0321C17.2458 46.1199 17.1579 46.12 17.1579 46.12Z" fill="#390075"/>
<path d="M28.8459 49.4592C27.9671 49.4592 27.1762 49.4592 26.2974 49.3713C25.067 49.2834 23.9246 49.1077 22.8701 48.9319C21.2003 48.5804 19.7943 48.141 18.7397 47.6137C17.5973 47.0864 16.9821 46.3834 16.7185 45.6804L16.6306 45.3288L11.7972 24.5893C11.7972 24.4135 11.7972 24.1499 11.973 24.062C12.1488 23.9741 12.3245 23.9741 12.5003 24.062C13.467 24.8529 15.4003 25.556 17.9488 26.0832C19.5306 26.4347 21.2882 26.6984 23.2216 26.8741C24.4519 26.962 25.6822 27.0499 26.9125 27.1378C28.6701 27.2257 30.4277 27.1378 32.0974 27.1378C33.4156 27.0499 34.6459 26.962 35.7883 26.8741C37.7217 26.6984 39.4793 26.3469 41.0611 25.9954C43.2581 25.4681 44.8399 24.8529 45.7187 24.1499C45.8945 24.062 46.0702 24.062 46.246 24.1499C46.4218 24.2378 46.5096 24.4135 46.5096 24.6772L40.9732 45.3288C40.8853 46.2955 39.9187 47.1743 38.4247 47.8773C37.2823 48.4046 35.9641 48.7561 34.2944 49.0198C33.2398 49.1955 32.0974 49.2834 30.8671 49.3713C30.2519 49.4592 29.5489 49.4592 28.8459 49.4592ZM17.5973 45.5046C17.773 45.944 18.3003 46.3834 19.1791 46.8228C20.1458 47.3501 21.464 47.7016 23.0458 48.0531C24.1004 48.2289 25.1549 48.4046 26.3852 48.4925C27.8792 48.5804 29.461 48.5804 30.8671 48.4925C32.0095 48.4046 33.152 48.3167 34.2065 48.141C35.7883 47.8773 37.1065 47.5258 38.0732 46.9986C39.3035 46.4713 39.9187 45.7682 40.0066 45.1531L45.3672 25.556C44.3126 26.0832 42.9945 26.5226 41.2369 26.962C39.655 27.3135 37.8096 27.6651 35.8762 27.8408C34.6459 27.9287 33.4156 28.0166 32.0974 28.1045C30.4277 28.1923 28.6701 28.1923 26.8246 28.1045C25.5064 28.1045 24.2761 28.0166 23.0458 27.8408C21.1125 27.6651 19.267 27.4014 17.6852 27.0499C15.6639 26.6105 13.9942 26.0832 12.8518 25.4681L17.5094 45.1531L17.5973 45.5046Z" fill="#566066"/>
<path d="M48.4431 46.384C48.531 46.5598 48.7067 46.6476 48.9704 46.7355L53.8037 47.1749C54.2431 47.1749 54.6825 47.5264 54.9462 47.9658C55.4735 48.9325 56.4401 49.4598 57.4947 49.284C58.4614 49.1961 59.2523 48.4931 59.5159 47.6143C59.7795 46.7355 59.6038 45.8567 59.0765 45.1537C59.7795 44.6264 60.1311 43.7476 59.9553 42.8688C59.8674 41.9021 59.1644 41.1112 58.2856 40.8476C57.231 40.4961 56.1765 40.8476 55.4735 41.7264C55.2098 42.0779 54.6825 42.3415 54.2431 42.2537L49.4098 41.8143C49.234 41.8143 49.0582 41.8143 48.8825 41.99C48.7067 42.0779 48.6188 42.2537 48.6188 42.4294L48.2673 45.9446C48.2673 46.1204 48.3552 46.2961 48.4431 46.384ZM56.0007 46.9992C55.5613 46.2961 54.7704 45.8567 53.8916 45.7688L49.7613 45.4173L49.937 43.2203L54.0674 43.5719C55.0341 43.6597 55.9129 43.2203 56.528 42.5173C56.7916 42.1658 57.3189 41.99 57.7583 42.1658C58.1098 42.2537 58.4614 42.6052 58.4614 43.0446C58.5492 43.6597 58.1098 44.0991 57.7583 44.2749C57.4068 44.3628 57.231 44.7143 57.1432 44.9779C57.1432 45.3294 57.3189 45.681 57.5826 45.7688C57.9341 45.9446 58.2856 46.4719 58.1098 47.087C58.022 47.4386 57.6704 47.7901 57.231 47.7901C56.7916 47.878 56.2644 47.6143 56.0886 47.1749C56.0886 47.1749 56.0886 47.087 56.0007 46.9992Z" fill="#566066"/>
<path d="M57.4068 48.4935C58.1098 48.4056 58.6371 47.9662 58.8128 47.2632C59.0765 46.3844 58.725 45.5056 57.934 45.0662C57.8462 44.9783 57.8462 44.8025 57.934 44.8025C58.725 44.5389 59.2522 43.748 59.1644 42.8692C59.0765 42.1662 58.6371 41.6389 57.934 41.4631C57.1431 41.1995 56.3522 41.4631 55.9128 42.0783C55.4734 42.6056 54.7704 42.9571 54.0673 42.8692L49.3219 42.4298L48.9703 46.0329L53.8037 46.4723C54.5067 46.5601 55.1219 46.9995 55.4734 47.6147C55.9128 48.2298 56.6159 48.6692 57.4068 48.4935Z" fill="white"/>
<path d="M48.6188 46.2957C48.7067 46.3836 48.7945 46.4715 48.9703 46.5594L53.8037 46.9988C54.331 47.0867 54.7703 47.3503 55.034 47.8776C55.4734 48.7564 56.4401 49.1958 57.4067 49.1079C58.2855 49.02 58.9886 48.4049 59.2522 47.5261C59.5158 46.6473 59.2522 45.7685 58.637 45.1533C59.3401 44.7139 59.7795 43.8351 59.6037 42.8684C59.5158 41.9897 58.9007 41.2866 58.0219 41.023C57.0552 40.6715 56.0885 41.023 55.4734 41.8139C55.1219 42.2533 54.5946 42.5169 54.0673 42.429L49.2339 41.9897C49.0582 41.9897 48.9703 41.9896 48.8824 42.0775C48.7945 42.1654 48.7067 42.2533 48.7067 42.429L48.5309 45.9442C48.443 46.12 48.5309 46.2079 48.6188 46.2957ZM55.8249 47.0867C55.3855 46.3836 54.6825 46.0321 53.8916 45.9442L49.4976 45.5927L49.7612 43.0442L54.1552 43.3957C55.034 43.4836 55.9128 43.1321 56.4401 42.429C56.7916 41.9897 57.3189 41.8139 57.8461 41.9897C58.2855 42.1654 58.6371 42.5169 58.7249 43.0442C58.8128 43.6594 58.4613 44.2745 57.8461 44.4503C57.5825 44.5382 57.4067 44.7139 57.4067 44.9776C57.4067 45.2412 57.4946 45.5048 57.7583 45.5927C58.2855 45.8563 58.5492 46.5594 58.3734 47.1745C58.1977 47.6139 57.8461 47.9655 57.3189 48.0533C56.7916 48.1412 56.2643 47.8776 56.0007 47.3503C55.9128 47.2624 55.9128 47.1745 55.8249 47.0867Z" fill="#566066"/>
<path d="M31.8338 42.8682C31.8338 42.8682 31.8338 42.9561 31.8338 43.0439C31.5702 46.1197 33.9429 49.6349 38.3369 50.1622C40.6218 50.5137 43.4339 49.9864 46.7733 48.141C47.3885 47.7894 48.0915 47.5258 48.8824 47.5258C50.2006 47.4379 51.1673 46.8228 51.7825 46.0318C51.8703 45.8561 52.0461 45.6803 52.134 45.4167C52.3097 45.0652 52.3976 44.7137 52.3976 44.3621C52.3976 44.1864 52.3976 44.0106 52.3976 43.9227C52.2219 42.6924 51.3431 41.4621 49.4976 41.0227C49.0582 40.9348 48.6188 40.7591 48.2673 40.4954C48.0915 40.4076 47.8279 40.2318 47.6521 40.056C45.3673 37.9469 42.9945 36.8924 40.8854 36.6287C35.9642 36.0136 32.1853 39.4409 31.8338 42.8682Z" fill="#FFEB8B"/>
<g opacity="0.55">
<g opacity="0.55">
<path opacity="0.55" d="M31.8338 42.5166V42.6045C31.8338 42.6045 31.8338 42.6924 31.8338 42.7802C31.5702 45.856 33.9429 49.3712 38.3369 49.8985C40.6218 50.25 43.4339 49.7227 46.7733 47.8773C47.3885 47.5257 48.0915 47.2621 48.8824 47.2621C50.2006 47.1742 51.1673 46.5591 51.7825 45.7681C51.8703 45.5924 52.0461 45.4166 52.134 45.153C52.3097 44.8015 52.3976 44.45 52.3976 44.0984C52.3976 43.9227 52.3976 43.7469 52.3976 43.659C52.3976 43.4833 52.3097 43.3075 52.3097 43.1318C52.3097 43.3075 52.2219 43.3954 52.134 43.5712C52.0461 43.7469 51.9582 44.0106 51.7825 44.1863C51.2552 44.9772 50.2885 45.5924 48.8824 45.6803C48.1794 45.7681 47.4764 45.9439 46.7733 46.2954C43.5218 48.1409 40.6218 48.5803 38.3369 48.3166C34.4702 47.8773 32.1853 45.2409 31.8338 42.5166Z" fill="#566066"/>
</g>
</g>
<path d="M32.449 47.0869C32.9763 47.9657 33.7672 48.7566 34.7339 49.2839C36.5793 50.5142 40.7097 52.0081 47.037 48.4929C47.6521 48.1414 48.2673 47.9657 48.8825 47.8778C51.3431 47.702 52.6613 46.0323 52.7491 44.4505C52.9249 42.8687 51.9582 41.0232 49.4976 40.408C48.8825 40.2323 48.3552 39.9686 47.9158 39.5292C44.3127 36.1898 40.1824 35.1353 36.4914 36.5413C33.5914 37.6838 31.5702 40.2323 31.3066 42.8687C31.2187 44.3626 31.5702 45.8566 32.449 47.0869ZM51.3431 42.7808C51.6946 43.3081 51.7825 43.9232 51.7825 44.4505C51.6946 45.505 50.9037 46.8232 48.7946 46.999C48.0037 47.0869 47.2127 47.2626 46.5097 47.702C40.6218 50.9536 36.9308 49.6354 35.2611 48.4929C33.3278 47.2626 32.1853 45.0656 32.3611 43.0444C32.5369 40.7596 34.3823 38.5626 36.9308 37.508C40.1824 36.1898 43.9612 37.2444 47.3006 40.3202C47.9158 40.8474 48.6188 41.2868 49.3218 41.4626C50.2885 41.7262 50.9037 42.2535 51.3431 42.7808Z" fill="#566066"/>
<path d="M19.5306 37.5088H4.59106V44.3634H19.5306V37.5088Z" fill="#FFEB8B"/>
<path d="M24.4519 38.5633C24.4519 36.4542 24.1883 34.5209 22.7822 32.8512C21.5519 31.3572 19.7943 30.3905 17.9488 29.8633C17.7731 29.7754 17.5973 29.7754 17.5094 29.7754C16.1912 29.7754 9.5124 29.7754 8.19421 29.7754C8.01845 29.7754 7.84269 29.7754 7.66693 29.8633C5.82147 30.4784 4.06388 31.533 2.83356 32.9391C2.21841 33.73 1.69113 34.6088 1.42749 35.5754C1.16385 36.5421 1.25173 37.5088 1.25173 38.4755C1.25173 38.7391 1.42749 38.9149 1.69113 38.9149H24.0125C24.2762 39.0906 24.4519 38.827 24.4519 38.5633Z" fill="#FFEB8B"/>
<path d="M24.0125 40.2329H1.69107C0.812278 40.2329 0.0213623 39.5299 0.0213623 38.5632V38.0359C0.0213623 37.1571 0.0213623 36.2783 0.285001 35.3117C0.548639 34.2571 1.1638 33.2025 1.95471 32.2359C3.00927 31.0056 4.41534 29.951 5.99717 29.248C6.96384 28.8086 8.0184 28.6328 9.07295 28.6328H16.6306C17.5094 28.6328 18.4761 28.8086 19.267 29.0722C21.0246 29.7752 22.5185 30.8298 23.6609 32.148C25.4185 34.1692 25.5943 36.542 25.5943 38.5632C25.5943 39.5299 24.8913 40.2329 24.0125 40.2329ZM2.30623 37.948H23.2215C23.2215 36.2783 22.87 34.8723 21.9034 33.6419C20.9367 32.4995 19.4427 31.5328 17.6851 31.0056C17.5973 31.0056 17.5973 31.0056 17.5094 31.0056H8.19416C8.10628 31.0056 8.10628 31.0056 8.0184 31.0056C6.26081 31.5328 4.76686 32.4995 3.7123 33.7298C3.09714 34.4329 2.74563 35.1359 2.48199 35.9268C2.30623 36.542 2.30623 37.1571 2.30623 37.948Z" fill="#566066"/>
<path d="M24.0125 44.5391C24.2762 44.5391 24.4519 44.7148 24.4519 44.9785C24.5398 46.033 24.364 48.4936 21.7277 48.933H3.88813C1.25174 48.4936 1.07598 45.9451 1.16386 44.9785C1.16386 44.7148 1.4275 44.5391 1.60326 44.5391H24.0125Z" fill="#FFEB8B"/>
<path d="M21.7276 50.1632H3.88809C3.80021 50.1632 3.80021 50.1632 3.71233 50.1632C0.724431 49.6359 -0.154364 47.1753 0.0213948 44.9783C0.109274 44.0995 0.81231 43.4844 1.69111 43.4844H24.0125C24.8913 43.4844 25.5943 44.1874 25.6822 44.9783C25.858 47.1753 24.8913 49.7238 21.9913 50.1632C21.8155 50.1632 21.8155 50.1632 21.7276 50.1632ZM4.06385 47.7905H21.6397C22.6943 47.6147 23.2216 46.9117 23.3095 45.6814H2.39414C2.39414 46.9117 3.0093 47.6147 4.06385 47.7905Z" fill="#566066"/>
<path d="M22.6944 40.6729H11.0064C9.86397 41.3759 8.72153 42.0789 7.40334 42.6062C7.05182 42.782 6.52455 42.8698 6.17303 42.782C5.82151 42.6062 5.55787 42.2547 5.38211 41.9032C5.11847 41.5516 4.94271 41.1122 4.67908 40.7607H3.09725C2.39421 40.6729 1.77905 41.288 1.77905 41.991C1.77905 42.6941 2.39421 43.3092 3.09725 43.3092H22.6944C23.3974 43.3092 24.0126 42.6941 24.0126 41.991C23.9247 41.288 23.3974 40.6729 22.6944 40.6729Z" fill="#FF97A0"/>
<path d="M22.6943 44.4515H3.09722C1.77903 44.4515 0.636597 43.3091 0.636597 41.9909C0.636597 40.6727 1.77903 39.5303 3.09722 39.5303H4.76693C5.20633 39.5303 5.55785 39.7939 5.82149 40.1454L6.08513 40.5848C6.26088 40.8485 6.34876 41.0242 6.52452 41.2879C6.6124 41.4636 6.70028 41.5515 6.78816 41.6394C6.87604 41.6394 6.96392 41.6394 7.13968 41.5515C8.10635 41.2 8.98515 40.6727 9.95182 40.0575L10.567 39.706C10.7427 39.6182 10.9185 39.5303 11.1821 39.5303H22.8701C24.1883 39.5303 25.3307 40.6727 25.3307 41.9909C25.155 43.397 24.0125 44.4515 22.6943 44.4515ZM10.8306 42.1667H22.6065C22.6944 42.1667 22.7822 42.0788 22.7822 41.9909C22.7822 41.903 22.6944 41.8151 22.6065 41.8151H11.27L10.9185 41.9909C10.9185 42.0788 10.9185 42.0788 10.8306 42.1667ZM3.09722 41.903C3.00934 41.903 2.92146 41.9909 2.92146 42.0788C2.92146 42.1667 3.00934 42.2545 3.09722 42.2545H4.23966C4.15178 42.1667 4.15178 42.0788 4.0639 41.9909H3.09722V41.903Z" fill="#566066"/>
<path d="M24.4519 38.5633C24.4519 36.4542 24.1883 34.5209 22.7822 32.8512C21.9034 31.7966 20.761 31.0057 19.4428 30.3905C18.4761 29.9511 17.4215 29.7754 16.367 29.7754C14.5215 29.7754 11.0942 29.7754 9.24875 29.7754C8.1942 29.7754 7.05177 29.9511 6.08509 30.4784C4.85478 31.0936 3.71235 31.8845 2.74567 33.0269C2.13052 33.8178 1.60324 34.6966 1.3396 35.6633C1.07596 36.63 1.16384 37.5967 1.16384 38.5633C1.16384 38.827 1.3396 39.0027 1.60324 39.0027H23.9246C24.2761 39.0906 24.4519 38.827 24.4519 38.5633Z" fill="#FFEB8B"/>
<path d="M24.0125 44.5391C24.2762 44.5391 24.4519 44.7148 24.4519 44.9785C24.5398 46.033 24.364 48.4936 21.7277 48.933H3.88813C1.25174 48.4936 1.07598 45.9451 1.16386 44.9785C1.16386 44.7148 1.4275 44.5391 1.60326 44.5391H24.0125Z" fill="#7BD8D3"/>
<path d="M22.6944 40.6729H11.0064C9.86397 41.3759 8.72153 42.0789 7.40334 42.6062C7.05182 42.782 6.52455 42.8698 6.17303 42.782C5.82151 42.6062 5.55787 42.2547 5.38211 41.9032C5.11847 41.5516 4.94271 41.1122 4.67908 40.7607H3.09725C2.39421 40.6729 1.77905 41.288 1.77905 41.991C1.77905 42.6941 2.39421 43.3092 3.09725 43.3092H22.6944C23.3974 43.3092 24.0126 42.6941 24.0126 41.991C23.9247 41.288 23.3974 40.6729 22.6944 40.6729Z" fill="#FF97A0"/>
</g>
<defs>
<clipPath id="clip0_4698_4294">
<rect width="60" height="60" fill="white"/>
</clipPath>
</defs>
</svg>
